<svg width="11" height="17" viewBox="0 0 11 17" fill="none" xmlns="http://www.w3.org/2000/svg">
<path d="M6.01195 16.6926C5.21378 16.6926 3.95002 14.8968 3.48442 14.4312C2.75277 13.6995 1.35597 12.7683 0.956889 11.9036C0.557806 11.039 1.08992 10.7729 1.82157 11.1055C2.22065 11.305 2.61974 11.9036 2.88579 12.1697C3.75048 13.0344 4.54864 13.8325 5.41332 14.6972C5.41332 12.4357 5.41332 10.1743 5.41332 7.97931C5.41332 6.44949 5.41332 4.85316 5.41332 3.32334C5.41332 2.59169 5.21378 1.39443 5.41332 0.662781C5.87892 -0.667498 6.67709 0.463239 7.27571 0.995351C8.27342 1.99306 9.47067 2.99077 10.3354 4.05499C10.6679 4.45408 11.3996 5.31876 10.2688 5.38527C9.86976 5.38527 9.47067 4.85316 9.27113 4.5871C8.33994 3.65591 7.47526 2.79123 6.54406 1.86003C6.54406 4.38756 6.54406 6.91509 6.54406 9.44262C6.54406 10.3738 7.14269 16.6926 6.01195 16.6926Z" fill="#F6C866"/>
</svg>
