<svg width="10" height="17" viewBox="0 0 10 17" fill="none" xmlns="http://www.w3.org/2000/svg">
<path d="M5.9133 8.44489C6.57843 7.11461 7.24357 5.85085 7.90871 4.52057C8.37431 3.65589 8.77339 2.7912 9.23899 1.92652C9.37202 1.66047 9.90413 0.995328 9.83762 0.596245C9.43853 -1.39917 7.57614 2.65818 7.44312 2.92423C6.71146 4.32102 5.97981 5.78433 5.24816 7.18112C4.18393 5.11919 3.31925 2.45863 1.92246 0.662758C1.12429 -0.334951 0.592179 0.463217 0.991263 1.39441C1.58989 2.72469 2.32154 3.98846 2.98668 5.25222C3.38576 6.05039 4.5165 7.51369 4.58302 8.37838C4.64953 8.977 3.78485 9.97471 3.51879 10.5068C2.78714 11.9036 2.05549 13.3004 1.39035 14.6972C1.1908 15.0963 0.126581 17.6238 1.6564 16.5596C2.45457 16.0275 2.98668 14.0321 3.45228 13.1674C4.0509 11.9701 4.64953 10.8394 5.24816 9.64214C5.97981 11.0389 6.64495 12.3692 7.3766 13.766C7.77568 14.4977 8.10825 15.3623 8.57385 16.0275C8.90642 16.4931 9.63807 17.2247 9.83762 16.1605C9.90413 15.7614 9.37202 15.1628 9.23899 14.8302C8.83991 14.0321 8.37431 13.1674 7.97523 12.3692C7.31009 11.172 6.57843 9.77517 5.9133 8.44489Z" fill="#F6C866"/>
</svg>
