<svg width="7" height="18" viewBox="0 0 7 18" fill="none" xmlns="http://www.w3.org/2000/svg">
<path d="M5.8789 4.45412C4.4821 5.85092 3.08531 7.24771 1.68852 8.6445C1.68852 7.24771 1.48898 6.7156 2.48669 5.71789C3.75045 4.45412 5.14724 3.25687 6.34449 1.92659C6.74358 1.461 7.40872 0.396774 6.14495 0.596316C5.67935 0.729344 5.21376 1.39448 4.9477 1.66054C3.81696 2.72476 2.75274 3.78899 1.68852 4.85321C1.68852 3.72247 2.02109 2.05962 1.68852 1.06191C1.22292 -0.334879 0.557781 0.862372 0.557781 1.66054C0.424753 4.65367 0.557781 7.64679 0.557781 10.7064C0.557781 12.2363 0.557781 13.7661 0.557781 15.2294C0.557781 15.695 0.358239 17.0253 0.823836 17.2913C2.02109 18.023 1.68852 14.7638 1.68852 14.3647C1.68852 13.3005 1.28943 11.3051 1.68852 10.3074C2.0876 9.37616 3.75045 8.24542 4.41559 7.58028C5.01421 6.98165 5.74587 6.38303 6.27798 5.71789C6.41101 5.58486 6.61055 5.45183 6.67706 5.31881C6.94312 4.85321 6.61055 3.78899 5.8789 4.45412Z" fill="#F6C866"/>
</svg>
