<svg width="8" height="18" viewBox="0 0 8 18" fill="none" xmlns="http://www.w3.org/2000/svg">
<path d="M6.57415 17.0748C5.34391 17.0748 5.95903 8.87316 5.95903 7.77961C5.95903 6.54936 5.95903 6.48102 5.07052 5.59251C3.97697 4.43061 2.88341 3.33705 1.78986 2.17515C1.78986 5.86589 1.78986 9.62498 1.78986 13.3157C1.78986 13.8625 2.19994 17.0065 1.17474 17.0065C0.149534 17.0065 0.559616 14.0675 0.559616 13.5208C0.559616 11.1286 0.559616 8.73647 0.559616 6.41267C0.559616 4.70399 0.286228 2.79028 0.559616 1.0816C0.969698 -0.900461 2.47333 1.2183 3.1568 1.90177C4.25035 3.06367 6.16407 4.43061 6.98423 5.79755C7.32597 6.34432 7.18928 7.09614 7.18928 7.77961C7.18928 9.00986 7.18928 10.3084 7.18928 11.5387C7.12093 12.2222 7.6677 17.0748 6.57415 17.0748Z" fill="#F6C866"/>
</svg>
