<svg width="11" height="18" viewBox="0 0 11 18" fill="none" xmlns="http://www.w3.org/2000/svg">
<path d="M9.96616 0.997772C9.03496 0.598688 6.3744 4.05741 5.70926 4.72255C4.77807 3.79136 3.84687 2.86016 2.91568 1.92897C2.31705 1.33034 1.38585 0.332632 1.05328 1.72943C0.853743 2.72713 1.05328 3.92439 1.05328 4.92209C1.05328 6.65146 1.05328 8.38082 1.05328 10.1102C1.05328 11.7065 1.05328 13.3029 1.05328 14.9657C1.05328 15.5643 0.853743 16.562 1.05328 17.0941C1.31934 17.8923 1.98448 17.7593 2.18402 17.0276C2.25053 16.7616 2.18402 16.3625 2.18402 16.1629C2.18402 14.6331 2.18402 13.1698 2.18402 11.64C2.18402 8.71339 2.18402 5.78678 2.18402 2.92668C2.71613 3.45879 3.24824 3.9909 3.84687 4.58952C4.17944 4.92209 5.04412 6.18586 5.64275 6.18586C6.24137 6.18586 6.97303 5.05512 7.37211 4.72255C8.03725 4.12393 8.56936 3.5253 9.16798 2.99319C9.16798 7.51614 9.03496 11.9726 9.16798 16.4955C9.16798 17.1607 9.63358 18.5575 10.2987 17.3602C10.4983 16.9611 10.3652 16.163 10.3652 15.7639C10.3652 13.0368 10.3652 10.2432 10.3652 7.51614C10.3652 6.11935 10.3652 4.65604 10.3652 3.25925C10.3652 2.66062 10.5648 1.26383 9.96616 0.997772C9.76661 0.931258 10.1657 1.1308 9.96616 0.997772Z" fill="#F6C866"/>
</svg>
