<svg width="10" height="19" viewBox="0 0 10 19" fill="none" xmlns="http://www.w3.org/2000/svg">
<path d="M9.53576 0.919551C8.5789 0.509469 5.84502 4.06351 5.16155 4.74698C4.27304 3.85847 3.38452 2.96996 2.49601 2.08145C1.94924 1.53467 0.924031 0.167734 0.445602 1.53467C0.172214 2.28649 0.445602 3.51674 0.445602 4.26855C0.445602 5.90888 0.445602 7.48086 0.445602 9.12119C0.445602 10.7615 0.445602 12.4018 0.445602 14.1105C0.445602 15.0674 0.240561 16.2293 0.445602 17.1861C0.650643 18.2113 1.47081 18.2113 1.6075 17.1861C1.81255 15.8192 1.6075 14.1789 1.6075 12.7436C1.6075 11.7184 1.40246 10.5565 1.94924 9.73631C2.70106 8.50607 4.20469 7.48086 5.16155 6.524C6.18675 7.54921 8.37386 8.9845 8.71559 10.3514C9.26237 12.5385 8.16882 15.1357 8.71559 17.3228C8.98898 18.2113 9.67245 18.2797 9.87749 17.3228C10.0142 16.7077 9.87749 15.8192 9.87749 15.1357C9.87749 12.3335 9.87749 9.59962 9.87749 6.79739C9.87749 5.4988 9.87749 4.20021 9.87749 2.83327C9.94584 2.42318 10.1509 1.19294 9.53576 0.919551C9.33072 0.851204 9.7408 1.05624 9.53576 0.919551ZM1.6075 8.30103C1.6075 6.524 1.6075 4.67864 1.6075 2.90161C2.01759 3.3117 4.34138 5.02037 4.34138 5.63549C4.34138 6.25062 2.08593 7.89094 1.6075 8.30103ZM6.05006 5.63549C6.93857 4.74698 7.82708 3.85847 8.78394 2.90161C8.78394 4.67864 8.78394 6.524 8.78394 8.30103C7.82708 7.41252 6.93857 6.524 6.05006 5.63549Z" fill="#F6C866"/>
</svg>
