<svg width="11" height="19" viewBox="0 0 11 19" fill="none" xmlns="http://www.w3.org/2000/svg">
<path d="M10.2944 18.2115C9.61094 18.2115 8.79078 16.913 8.3807 16.5712C7.69723 15.8878 6.60367 14.2474 5.71516 13.9057C5.23673 13.7006 5.30508 13.8373 4.7583 14.3841C3.80144 15.341 2.91293 16.2295 1.95607 17.1863C1.4093 17.7331 0.725828 18.6216 0.247398 17.4597C0.110704 17.118 0.247398 16.3662 0.247398 16.0244C0.247398 13.6323 0.247398 11.2402 0.247398 8.77966C0.247398 6.59256 0.179051 4.40546 0.247398 2.21835C0.247398 1.67158 0.110704 0.851411 0.930869 0.919758C1.54599 0.988105 2.4345 2.2867 2.77624 2.62843C3.39136 3.24356 4.41657 4.74719 5.23673 5.08892C5.78351 5.29397 5.78351 5.02058 6.33029 4.4738C7.2188 3.58529 8.10731 2.69678 8.99582 1.80827C9.47425 1.32984 11.4563 -0.0371 10.7045 1.80827C10.3628 2.56009 9.13251 3.38025 8.51739 3.99537C7.76557 4.74719 6.94541 5.97744 5.98855 6.52421C4.62161 7.27603 2.36616 3.99537 1.4093 3.03852C1.4093 7.41272 1.4093 11.7869 1.4093 16.0928C2.29781 15.2043 3.11797 14.3841 4.00649 13.4956C4.7583 12.7438 5.10004 12.0603 6.12524 12.7438C7.2188 13.4273 8.10731 14.7259 8.99582 15.6144C9.20086 15.6827 12.0031 18.2115 10.2944 18.2115Z" fill="#F6C866"/>
</svg>
