<svg width="7" height="19" viewBox="0 0 7 19" fill="none" xmlns="http://www.w3.org/2000/svg">
<path d="M6.08885 5.77233C5.132 4.81547 4.17514 3.85861 3.21828 2.90175C2.73985 2.42333 1.03118 0.0311803 0.347711 1.19308C-0.0623705 1.9449 0.279364 3.72192 0.279364 4.54208C0.279364 6.25076 0.279364 8.02778 0.279364 9.73646C0.279364 12.0603 0.279364 14.3157 0.279364 16.6395C0.279364 16.9812 0.14267 17.5964 0.484404 17.8698C1.16787 18.4849 1.44126 17.5964 1.50961 17.1179C1.783 15.4776 1.44126 13.7006 1.50961 12.1286C1.57796 10.8984 2.46647 10.3516 3.35498 9.46307C3.76506 8.98464 6.84067 6.52415 6.08885 5.77233ZM1.44126 9.66811C1.44126 7.41266 1.44126 5.08886 1.44126 2.83341C2.05638 3.44853 2.67151 4.06365 3.21828 4.67878C3.49167 4.95217 4.79026 5.90902 4.79026 6.25076C4.79026 6.59249 3.35498 7.68605 3.08159 7.95943C2.60316 8.50621 2.05638 9.05299 1.44126 9.66811Z" fill="#F6C866"/>
</svg>
